<svg width="32" height="32" viewBox="0 0 32 32" fill="none" xmlns="http://www.w3.org/2000/svg">
<g clip-path="url(#clip0_9245_234)">
<path d="M26 24L22 29H6V2H22L26 6V24Z" fill="white"/>
<path d="M26 6H22V2L26 6ZM20 0V7C20 7.26522 20.1054 7.51957 20.2929 7.70711C20.4804 7.89464 20.7348 8 21 8H28L20 0Z" fill="#9DA2A5"/>
<path d="M24 11H8V13H24V11Z" fill="#ADB1B2"/>
<path d="M24 15H8V17H24V15Z" fill="#ADB1B2"/>
<path d="M24 19H8V21H24V19Z" fill="#ADB1B2"/>
<path d="M15.72 29H6V2H21L26 7V19.45L28 16.79V6.5L21.5 0H5C4.73478 0 4.48043 0.105357 4.29289 0.292893C4.10536 0.48043 4 0.734784 4 1V30C4 30.2652 4.10536 30.5196 4.29289 30.7071C4.48043 30.8946 4.73478 31 5 31H17.64L15.72 29Z" fill="#9DA2A5"/>
<path d="M21.2599 32C21.0732 32.0029 20.888 31.9671 20.7159 31.8948C20.5437 31.8226 20.3885 31.7154 20.2599 31.58L14.5999 25.69C14.4716 25.5694 14.3693 25.4237 14.2993 25.2621C14.2294 25.1004 14.1934 24.9261 14.1934 24.75C14.1934 24.5739 14.2294 24.3996 14.2993 24.2379C14.3693 24.0763 14.4716 23.9306 14.5999 23.81C14.7256 23.6691 14.8797 23.5563 15.052 23.4791C15.2243 23.4019 15.4111 23.362 15.5999 23.362C15.7887 23.362 15.9755 23.4019 16.1478 23.4791C16.3201 23.5563 16.4742 23.6691 16.5999 23.81L21.0299 28.42L29.4399 17.25C29.5477 17.0885 29.6891 16.9522 29.8543 16.8504C30.0196 16.7485 30.2049 16.6835 30.3976 16.6598C30.5903 16.6361 30.7858 16.6542 30.9709 16.7129C31.1559 16.7716 31.3261 16.8695 31.4699 17C31.7555 17.2415 31.9383 17.5829 31.981 17.9545C32.0237 18.326 31.9232 18.6999 31.6999 19L22.3399 31.45C22.223 31.6087 22.073 31.74 21.9004 31.835C21.7277 31.9299 21.5365 31.9862 21.3399 32H21.2599Z" fill="#75AD15"/>
</g>
<defs>
<clipPath id="clip0_9245_234">
<rect width="32" height="32" fill="white"/>
</clipPath>
</defs>
</svg>
