<svg width="32" height="32" viewBox="0 0 32 32" fill="none" xmlns="http://www.w3.org/2000/svg">
<path d="M26 29H6V2H22L26 6V29Z" fill="white"/>
<path d="M26 6H22V2L26 6ZM20 0V7C20 7.26522 20.1054 7.51957 20.2929 7.70711C20.4804 7.89464 20.7348 8 21 8H28L20 0Z" fill="#9DA2A5"/>
<path d="M24 15H8V17H24V15Z" fill="#ADB1B2"/>
<path d="M24 11H8V13H24V11Z" fill="#ADB1B2"/>
<path d="M24 19H8V21H24V19Z" fill="#ADB1B2"/>
<path d="M24 23H8V25H24V23Z" fill="#ADB1B2"/>
<path d="M2 7H6V12H2C1.73478 12 1.48043 11.8946 1.29289 11.7071C1.10536 11.5196 1 11.2652 1 11V8C1 7.73478 1.10536 7.48043 1.29289 7.29289C1.48043 7.10536 1.73478 7 2 7Z" fill="#D7853C"/>
<path d="M2 13H6V18H2C1.73478 18 1.48043 17.8946 1.29289 17.7071C1.10536 17.5196 1 17.2652 1 17V14C1 13.7348 1.10536 13.4804 1.29289 13.2929C1.48043 13.1054 1.73478 13 2 13Z" fill="#75AD15"/>
<path d="M2 19H6V24H2C1.73478 24 1.48043 23.8946 1.29289 23.7071C1.10536 23.5196 1 23.2652 1 23V20C1 19.7348 1.10536 19.4804 1.29289 19.2929C1.48043 19.1054 1.73478 19 2 19Z" fill="#407FB9"/>
<path d="M21.5 0H5C4.73478 0 4.48043 0.105357 4.29289 0.292893C4.10536 0.48043 4 0.734784 4 1V6H6V2H21L26 7V29H6V25H4V30C4 30.2652 4.10536 30.5196 4.29289 30.7071C4.48043 30.8946 4.73478 31 5 31H27C27.2652 31 27.5196 30.8946 27.7071 30.7071C27.8946 30.5196 28 30.2652 28 30V6.5L21.5 0Z" fill="#9DA2A5"/>
</svg>

