<svg width="54" height="53" viewBox="0 0 54 53" fill="none" xmlns="http://www.w3.org/2000/svg">
<rect x="1" y="19" width="16" height="31" rx="1" fill="white" stroke="#1C2150" stroke-width="2"/>
<rect x="15" width="13" height="7" rx="1" fill="#FFD299"/>
<rect x="25" y="10" width="16" height="13" rx="1" fill="white" stroke="#1C2150" stroke-width="2"/>
<rect x="27.5" y="14.5" width="14" height="9" rx="1.5" stroke="#1C2150"/>
<rect x="28" y="19" width="16" height="31" rx="1" fill="white" stroke="#1C2150" stroke-width="2"/>
<rect x="12" y="5" width="19" height="45" rx="1" fill="white" stroke="#1C2150" stroke-width="2"/>
<path d="M37 4.5V9.45" stroke="#1C2150" stroke-width="2" stroke-linecap="round"/>
<path d="M3 14V18.95" stroke="#1C2150" stroke-width="2" stroke-linecap="round"/>
<path d="M44 24H31" stroke="#1C2150" stroke-width="2"/>
<path d="M16.5 5V50" stroke="#1C2150" stroke-miterlimit="10" stroke-linecap="round" stroke-linejoin="round"/>
<path d="M19.5 5V50" stroke="#1C2150" stroke-miterlimit="10" stroke-linecap="round" stroke-linejoin="round"/>
<path fill-rule="evenodd" clip-rule="evenodd" d="M2.93848 23.5C2.93848 23.2239 3.16233 23 3.43848 23H9.69114C9.96729 23 10.1911 23.2239 10.1911 23.5C10.1911 23.7761 9.96729 24 9.69114 24H3.43848C3.16233 24 2.93848 23.7761 2.93848 23.5ZM3.43848 27C3.16233 27 2.93848 27.2239 2.93848 27.5C2.93848 27.7761 3.16233 28 3.43848 28H9.69114C9.96729 28 10.1911 27.7761 10.1911 27.5C10.1911 27.2239 9.96729 27 9.69114 27H3.43848ZM2.93848 31.5C2.93848 31.2239 3.16233 31 3.43848 31H9.69114C9.96729 31 10.1911 31.2239 10.1911 31.5C10.1911 31.7761 9.96729 32 9.69114 32H3.43848C3.16233 32 2.93848 31.7761 2.93848 31.5ZM2.93848 39.5C2.93848 39.2239 3.16233 39 3.43848 39H9.69114C9.96729 39 10.1911 39.2239 10.1911 39.5C10.1911 39.7761 9.96729 40 9.69114 40H3.43848C3.16233 40 2.93848 39.7761 2.93848 39.5ZM3.43848 35C3.16233 35 2.93848 35.2239 2.93848 35.5C2.93848 35.7761 3.16233 36 3.43848 36H9.69114C9.96729 36 10.1911 35.7761 10.1911 35.5C10.1911 35.2239 9.96729 35 9.69114 35H3.43848Z" fill="#1C2150"/>
<circle cx="43" cy="42" r="11" fill="#FF7A00"/>
<path d="M51 40.5455C51 40.4416 50.8954 40.3377 50.7908 40.3377C50.4771 40.2338 50.1634 40.1299 49.8497 40.026C49.7451 40.026 49.6405 39.9221 49.6405 39.8182C49.4314 39.2987 49.2222 38.8831 49.0131 38.3636C49.0131 38.2597 49.0131 38.1558 49.0131 38.1558C49.1176 37.8442 49.3268 37.5325 49.4314 37.2208C49.5359 37.1169 49.4314 37.013 49.3268 36.9091C48.8039 36.3896 48.281 35.974 47.8627 35.4545C47.7582 35.3506 47.6536 35.3506 47.549 35.4545C47.2353 35.5584 46.9216 35.7662 46.6078 35.8701C46.5033 35.8701 46.2941 35.8701 46.1895 35.8701C45.6667 35.6623 45.2484 35.4545 44.7255 35.2468C44.6209 35.2468 44.5163 35.1429 44.5163 35.039C44.4118 34.7273 44.2026 34.4156 44.098 34.1039C44.098 34 43.9935 34 43.8889 34C43.1569 34 42.4248 34 41.6928 34.1039C41.5882 34.1039 41.5882 34.2078 41.4837 34.2078C41.3791 34.5195 41.2745 34.8312 41.1699 35.1429C41.1699 35.2468 41.0654 35.3506 40.9608 35.3506C40.4379 35.5584 40.0196 35.7662 39.4967 35.974C39.3922 35.974 39.2876 35.974 39.183 35.974C38.8693 35.8701 38.5556 35.6623 38.2418 35.5584C38.1373 35.4545 38.0327 35.5584 38.0327 35.5584C37.5098 36.0779 36.9869 36.5974 36.4641 37.1169C36.3595 37.2208 36.3595 37.2208 36.4641 37.3247C36.6732 37.6364 36.7778 37.9481 36.9869 38.2597C36.9869 38.3636 36.9869 38.4675 36.9869 38.5714C36.7778 39.0909 36.5686 39.6104 36.3595 40.1299C36.3595 40.2338 36.2549 40.3377 36.1503 40.3377C35.8366 40.4416 35.5229 40.5455 35.2091 40.7532C35.1046 40.8571 35 40.8571 35 41.0649C35 41.7922 35 42.5195 35.1046 43.1429C35.1046 43.2468 35.1046 43.3506 35.3137 43.3506C35.6275 43.4545 35.9412 43.5584 36.2549 43.6623C36.4641 43.6623 36.4641 43.7662 36.5686 43.974C36.7778 44.4935 36.9869 44.9091 37.1961 45.4286C37.1961 45.5325 37.1961 45.6364 37.1961 45.7403C37.0915 46.0519 36.8824 46.4675 36.6732 46.8831C37.1961 47.4026 37.8235 47.9221 38.3464 48.4416C38.3464 48.4416 38.451 48.4416 38.5556 48.4416C38.8693 48.3377 39.183 48.1299 39.4967 48.026C39.6013 48.026 39.7059 47.9221 39.8105 48.026C40.3333 48.2338 40.8562 48.4416 41.2745 48.6494C41.3791 48.6494 41.4837 48.7532 41.4837 48.8571C41.5882 49.1688 41.6928 49.4805 41.902 49.7922C41.902 49.8961 42.0065 50 42.2157 50C42.9477 50 43.6797 50 44.4118 49.8961C44.5163 49.8961 44.6209 49.8961 44.6209 49.6883C44.7255 49.3766 44.8301 49.0649 44.9346 48.6494C44.9346 48.5455 45.0392 48.4416 45.1438 48.4416C45.6667 48.2338 46.085 48.026 46.6078 47.8182C46.7124 47.8182 46.817 47.8182 46.9216 47.8182C47.2353 47.9221 47.549 48.1299 47.8627 48.2338C47.9673 48.3377 48.0719 48.2338 48.1765 48.1299C48.6993 47.6104 49.1176 47.0909 49.6405 46.6753C49.7451 46.5714 49.7451 46.4675 49.6405 46.3636C49.5359 46.0519 49.3268 45.7403 49.2222 45.4286C49.2222 45.3247 49.2222 45.2208 49.2222 45.1169C49.4314 44.5974 49.6405 44.0779 49.8497 43.6623C49.8497 43.5584 49.9542 43.4545 50.0588 43.4545C50.3725 43.3506 50.6863 43.2468 50.8954 43.1429C51 43.1429 51 43.039 51 42.9351C51 42 51 41.2727 51 40.5455ZM42.9477 45.1169C41.0654 45.1169 39.6013 43.5584 39.6013 41.6883C39.6013 39.8182 41.1699 38.3636 42.9477 38.3636C44.8301 38.3636 46.2941 39.8182 46.2941 41.7922C46.3987 43.5584 44.8301 45.1169 42.9477 45.1169Z" fill="white"/>
</svg>
