<svg width="16" height="16" viewBox="0 0 16 16" fill="none" xmlns="http://www.w3.org/2000/svg">
	<path d="M15 14H1V2H7L9 4H15V14Z" fill="white"/>
	<path d="M16 10H1V11H16V10Z" fill="#798288"/>
	<path d="M12 10H4V1H10.5L12 2.5V10Z" fill="white"/>
	<path d="M11 5H5V6H11V5Z" fill="#ADB1B2"/>
	<path d="M11 7H5V8H11V7Z" fill="#ADB1B2"/>
	<path d="M12 3V10H4V1H9.9375V0H4C3.73478 0 3.48043 0.105357 3.29289 0.292893C3.10536 0.48043 3 0.734784 3 1V10C3 10.2652 3.10536 10.5196 3.29289 10.7071C3.48043 10.8946 3.73478 11 4 11H12C12.2652 11 12.5196 10.8946 12.7071 10.7071C12.8946 10.5196 13 10.2652 13 10V3H12Z" fill="#798288"/>
	<path d="M10 1L12 3H10V1ZM9 0V3C9.00077 3.26498 9.10637 3.51889 9.29374 3.70626C9.48111 3.89363 9.73502 3.99923 10 4H13V2.6L10.4 0H9Z" fill="#798288"/>
	<path fill-rule="evenodd" clip-rule="evenodd" d="M2 1H1C0.734784 1 0.48043 1.10536 0.292893 1.29289C0.105357 1.48043 0 1.73478 0 2V14C0 14.2652 0.105357 14.5196 0.292893 14.7071C0.48043 14.8946 0.734784 15 1 15H15C15.2652 15 15.5196 14.8946 15.7071 14.7071C15.8946 14.5196 16 14.2652 16 14V4C16 3.73478 15.8946 3.48043 15.7071 3.29289C15.5196 3.10536 15.2652 3 15 3H14V4H15V14H1V2H2V1ZM8.98844 4C8.99229 4.00002 8.99615 4.00002 9 4H8.98844Z" fill="#798288"/>
</svg>
