<?xml version="1.0" standalone="no"?>
<!DOCTYPE svg PUBLIC "-//W3C//DTD SVG 20010904//EN"
 "http://www.w3.org/TR/2001/REC-SVG-20010904/DTD/svg10.dtd">
<svg version="1.0" xmlns="http://www.w3.org/2000/svg"
 width="32.000000pt" height="32.000000pt" viewBox="0 0 32.000000 32.000000"
 preserveAspectRatio="xMidYMid meet">

<g transform="translate(0.000000,32.000000) scale(0.100000,-0.100000)"
fill="#000000" stroke="none">
<path d="M70 241 c0 -30 -4 -40 -20 -44 -17 -4 -20 -14 -20 -61 0 -49 2 -56
20 -56 13 0 20 -7 20 -20 0 -19 7 -20 90 -20 83 0 90 1 90 20 0 13 7 20 20 20
18 0 20 7 20 56 0 47 -3 57 -20 61 -16 4 -20 14 -20 44 l0 39 -90 0 -90 0 0
-39z m170 -31 l0 -60 -80 0 -80 0 0 60 0 60 80 0 80 0 0 -60z m-170 -56 c0
-24 1 -24 89 -24 l90 0 3 28 c4 39 22 29 26 -14 4 -40 -13 -69 -24 -41 -9 24
-179 25 -188 1 -10 -26 -26 -5 -26 35 0 21 3 41 6 44 12 11 24 -3 24 -29z
m170 -74 l0 -30 -80 0 -80 0 0 30 0 30 80 0 80 0 0 -30z"/>
<path d="M133 233 c15 -2 39 -2 55 0 15 2 2 4 -28 4 -30 0 -43 -2 -27 -4z"/>
<path d="M133 203 c15 -2 39 -2 55 0 15 2 2 4 -28 4 -30 0 -43 -2 -27 -4z"/>
<path d="M110 180 c0 -5 16 -10 35 -10 19 0 35 5 35 10 0 6 -16 10 -35 10 -19
0 -35 -4 -35 -10z"/>
</g>
</svg>
