<svg width="32" height="32" viewBox="0 0 32 32" fill="none" xmlns="http://www.w3.org/2000/svg">
<path d="M29 5H2V26H29V5Z" fill="white"/>
<path d="M29 5V26H2V5H29ZM30 3H1C0.735019 3.00077 0.481109 3.10637 0.293738 3.29374C0.106368 3.48111 0.000765122 3.73502 0 4L0 27C0.000765122 27.265 0.106368 27.5189 0.293738 27.7063C0.481109 27.8936 0.735019 27.9992 1 28H30C30.265 27.9992 30.5189 27.8936 30.7063 27.7063C30.8936 27.5189 30.9992 27.265 31 27V4C30.9992 3.73502 30.8936 3.48111 30.7063 3.29374C30.5189 3.10637 30.265 3.00077 30 3Z" fill="#9DA2A5"/>
<path d="M12 9H10V22H12V9Z" fill="#576672"/>
<path d="M9 9H8V22H9V9Z" fill="#576672"/>
<path d="M7 9H5V22H7V9Z" fill="#576672"/>
<path d="M14 9H13V22H14V9Z" fill="#576672"/>
<path d="M18 9H15V22H18V9Z" fill="#576672"/>
<path d="M21 9H19V22H21V9Z" fill="#576672"/>
<path d="M26 9H24V22H26V9Z" fill="#576672"/>
<path d="M23 9H22V22H23V9Z" fill="#576672"/>
</svg>
