<svg width="16" height="16" xmlns="http://www.w3.org/2000/svg">
 <!-- Created with Method Draw - http://github.com/duopixel/Method-Draw/ -->

 <g>
  <title>background</title>
  <rect fill="none" id="canvas_background" height="18" width="18" y="-1" x="-1"/>
  <g display="none" overflow="visible" y="0" x="0" height="100%" width="100%" id="canvasGrid">
   <rect fill="url(#gridpattern)" stroke-width="0" y="0" x="0" height="100%" width="100%"/>
  </g>
 </g>
 <g>
  <title>Layer 1</title>
  <metadata id="svg_27">image/svg+xml</metadata>
  <defs>
   <clipPath id="svg_19" clipPathUnits="userSpaceOnUse">
    <path id="svg_26" d="m93.67337,-78.97152l595.276,0l0,595.276l-595.276,0l0,-595.276z"/>
   </clipPath>
  </defs>
  <g id="svg_29">
   <g transform="matrix(0.544484, 0, 0, -0.544484, 21.9236, 366.379)" id="svg_16">
    <g transform="matrix(5.84272, 0, 0, 5.84272, -1583.84, -2391.09)" id="svg_17">
     <g clip-path="url(#svg_19)" id="svg_18">
      <g id="svg_24">
       <path fill="#d91920" fill-rule="nonzero" id="svg_25" d="m390.48258,418.85609c-1.215,0.081 -2.616,0.294 -3.721,0.614c-0.207,0.06 -1.064,0.375 -1.282,0.475c-3.847,1.782 -6.527,5.672 -6.527,10.185c0,6.19 5.036,11.232 11.23,11.232c6.139,0 11.141,-4.956 11.227,-11.076l4.057,0c-0.086,8.356 -6.907,15.128 -15.284,15.128c-8.427,0 -15.286,-6.855 -15.286,-15.284c0,-5.811 3.268,-10.865 8.053,-13.447c0.864,-0.457 2.104,-0.928 2.525,-1.057c1.364,-0.406 3.038,-0.676 4.528,-0.789c0.506,-0.038 2.273,-0.058 2.788,-0.06l27.938,0l0,4.041l-27.891,0c-0.371,0 -1.992,0.014 -2.355,0.038m2.355,6.345l0,0c-0.295,0 -1.838,0.01 -2.123,0.034c-0.483,0.041 -1.183,0.113 -1.633,0.216c-0.508,0.136 -0.985,0.316 -1.2,0.434c-1.507,0.815 -2.534,2.409 -2.534,4.245c0,2.671 2.163,4.837 4.835,4.837c2.616,0 4.743,-2.081 4.828,-4.681l3.898,0c-0.082,4.75 -3.954,8.578 -8.726,8.578c-4.825,0 -8.736,-3.91 -8.736,-8.734c0,-3.402 1.95,-6.34 4.79,-7.779c0.437,-0.256 1.259,-0.524 1.493,-0.585c0.802,-0.211 1.879,-0.355 2.753,-0.419c0.323,-0.027 1.905,-0.039 2.239,-0.041l0,-0.006l28.006,0l0,3.901l-27.89,0zm-20.441,-10.409l-4.084,0l0,26.561l-5.968,0l0,4.085l10.052,0l0,-30.646zm-14.536,24.52l0,-3.928l4.484,0l0,-20.592l3.924,0l0,24.52l-8.408,0z"/>
      </g>
      <g id="svg_22">
       <path fill="#d91920" fill-rule="nonzero" id="svg_23" d="m413.51218,445.15281c-1.471,0 -2.691,-1.173 -2.691,-2.645c0,-1.472 1.22,-2.692 2.691,-2.692c1.516,0 2.689,1.22 2.689,2.692c0,1.472 -1.173,2.645 -2.689,2.645m0,-4.903c-1.215,0 -2.262,0.955 -2.262,2.258c0,1.237 1.047,2.216 2.262,2.216c1.214,0 2.256,-0.979 2.256,-2.216c0,-1.303 -1.042,-2.258 -2.256,-2.258"/>
      </g>
      <g id="svg_20">
       <path fill="#d91920" fill-rule="nonzero" id="svg_21" d="m414.53678,441.783c0,0.297 -0.044,0.573 -0.384,0.682c0.426,0.148 0.468,0.427 0.468,0.596c0,0.683 -0.62,0.77 -0.875,0.77l-1.173,0l0,-2.645l0.489,0l0,1.085l0.385,0c0.554,0 0.6,-0.255 0.6,-0.488c0,-0.451 0,-0.536 0.106,-0.597l0.49,0c-0.106,0.107 -0.064,0.19 -0.106,0.597m-0.898,0.874l-0.577,0l0,0.833l0.494,0c0.342,0 0.574,-0.108 0.574,-0.429c0,-0.169 -0.083,-0.404 -0.491,-0.404"/>
      </g>
     </g>
    </g>
   </g>
  </g>
  <metadata id="svg_56">image/svg+xml</metadata>
  <defs>
   <clipPath id="svg_48" clipPathUnits="userSpaceOnUse">
    <path id="svg_55" d="m14.94206,15.35841l595.276,0l0,595.276l-595.276,0l0,-595.276z"/>
   </clipPath>
  </defs>
  <g id="svg_58">
   <g transform="matrix(0.0435485, 0, 0, -0.0440303, -2.10354, 37.6348)" id="svg_45">
    <g transform="matrix(5.84272, 0, 0, 5.84272, -1583.84, -2391.09)" id="svg_46">
     <g clip-path="url(#svg_48)" id="svg_47">
      <g id="svg_53">
       <path fill="#d91920" fill-rule="nonzero" id="svg_54" d="m311.97535,513.18601c-1.215,0.081 -2.616,0.294 -3.721,0.614c-0.207,0.06 -1.064,0.375 -1.282,0.475c-3.847,1.782 -6.527,5.672 -6.527,10.185c0,6.19 5.036,11.232 11.23,11.232c6.139,0 11.141,-4.956 11.227,-11.076l4.057,0c-0.086,8.356 -6.907,15.128 -15.284,15.128c-8.427,0 -15.286,-6.855 -15.286,-15.284c0,-5.811 3.268,-10.865 8.053,-13.447c0.864,-0.457 2.104,-0.928 2.525,-1.057c1.364,-0.406 3.038,-0.676 4.528,-0.789c0.506,-0.038 2.273,-0.058 2.788,-0.06l27.938,0l0,4.041l-27.891,0c-0.371,0 -1.992,0.014 -2.355,0.038m2.355,6.345l0,0c-0.295,0 -1.838,0.01 -2.123,0.034c-0.483,0.041 -1.183,0.113 -1.633,0.216c-0.508,0.136 -0.985,0.316 -1.2,0.434c-1.507,0.815 -2.534,2.409 -2.534,4.245c0,2.671 2.163,4.837 4.835,4.837c2.616,0 4.743,-2.081 4.828,-4.681l3.898,0c-0.082,4.75 -3.954,8.578 -8.726,8.578c-4.825,0 -8.736,-3.91 -8.736,-8.734c0,-3.402 1.95,-6.34 4.79,-7.779c0.437,-0.256 1.259,-0.524 1.493,-0.585c0.802,-0.211 1.879,-0.355 2.753,-0.419c0.323,-0.027 1.905,-0.039 2.239,-0.041l0,-0.006l28.006,0l0,3.901l-27.89,0zm-20.441,-10.409l-4.084,0l0,26.561l-5.968,0l0,4.085l10.052,0l0,-30.646zm-14.536,24.52l0,-3.928l4.484,0l0,-20.592l3.924,0l0,24.52l-8.408,0z"/>
      </g>
      <g id="svg_51">
       <path fill="#d91920" fill-rule="nonzero" id="svg_52" d="m335.00496,539.48274c-1.471,0 -2.691,-1.173 -2.691,-2.645c0,-1.472 1.22,-2.692 2.691,-2.692c1.516,0 2.689,1.22 2.689,2.692c0,1.472 -1.173,2.645 -2.689,2.645m0,-4.903c-1.215,0 -2.262,0.955 -2.262,2.258c0,1.237 1.047,2.216 2.262,2.216c1.214,0 2.256,-0.979 2.256,-2.216c0,-1.303 -1.042,-2.258 -2.256,-2.258"/>
      </g>
      <g id="svg_49">
       <path fill="#d91920" fill-rule="nonzero" id="svg_50" d="m336.02955,536.11292c0,0.297 -0.044,0.573 -0.384,0.682c0.426,0.148 0.468,0.427 0.468,0.596c0,0.683 -0.62,0.77 -0.875,0.77l-1.173,0l0,-2.645l0.489,0l0,1.085l0.385,0c0.554,0 0.6,-0.255 0.6,-0.488c0,-0.451 0,-0.536 0.106,-0.597l0.49,0c-0.106,0.107 -0.064,0.19 -0.106,0.597m-0.898,0.874l-0.577,0l0,0.833l0.494,0c0.342,0 0.574,-0.108 0.574,-0.429c0,-0.169 -0.083,-0.404 -0.491,-0.404"/>
      </g>
     </g>
    </g>
   </g>
  </g>
 </g>
</svg>