<svg width="56" height="56" viewBox="0 0 56 56" fill="none" xmlns="http://www.w3.org/2000/svg">
<path d="M50 49H23C21.8954 49 21 48.1046 21 47V9C21 7.89543 21.8954 7 23 7H44.0858L52 14.9142V47C52 48.1046 51.1046 49 50 49Z" fill="white" stroke="#1C2150" stroke-width="2"/>
<path d="M43 7V16H52" fill="#FFD299"/>
<path d="M43 7V16H52" stroke="#1C2150" stroke-width="2" stroke-linecap="round" stroke-linejoin="round"/>
<path d="M18 9H26" stroke="#FF7A00" stroke-width="2" stroke-linecap="round" stroke-linejoin="round"/>
<path d="M23.5 24.5H46.5" stroke="#1C2150" stroke-miterlimit="10" stroke-linecap="round" stroke-linejoin="round"/>
<path d="M23.5 29.5H46.5" stroke="#1C2150" stroke-miterlimit="10" stroke-linecap="round" stroke-linejoin="round"/>
<path d="M23.5 34.5H46.5" stroke="#1C2150" stroke-miterlimit="10" stroke-linecap="round" stroke-linejoin="round"/>
<path d="M23.5 39.5H35.5" stroke="#1C2150" stroke-miterlimit="10" stroke-linecap="round" stroke-linejoin="round"/>
<path d="M5 2H15C15.5523 2 16 2.44771 16 3V53C16 53.5523 15.5523 54 15 54H5C4.44771 54 4 53.5523 4 53V3C4 2.44772 4.44772 2 5 2Z" fill="white" stroke="#1C2150" stroke-width="2"/>
<path d="M8 9H12V26H8L8 9Z" fill="#FF7A00" stroke="#FF7A00" stroke-width="2"/>
<path d="M17 2H27C27.5523 2 28 2.44771 28 3V53C28 53.5523 27.5523 54 27 54H17C16.4477 54 16 53.5523 16 53V3C16 2.44772 16.4477 2 17 2Z" fill="white" stroke="#1C2150" stroke-width="2"/>
<path d="M25 9C25 8.44771 24.5523 8 24 8H20C19.4477 8 19 8.44772 19 9V26C19 26.5523 19.4477 27 20 27H24C24.5523 27 25 26.5523 25 26V9Z" fill="#FFD299"/>
<circle cx="10" cy="48" r="2" fill="#1C2150"/>
<circle cx="22" cy="48" r="2" fill="#1C2150"/>
</svg>
