<svg id="Layer_1" data-name="Layer 1" xmlns="http://www.w3.org/2000/svg" viewBox="0 0 32 32"><title>report_pdf_32</title><rect x="3" y="5" width="27" height="21" fill="#fff"/><polygon points="18 11 18 13 18 24 22 24 22 13 22 11 18 11" fill="#c1c5c6"/><polygon points="23 16 23 18 23 24 27 24 27 18 27 16 23 16" fill="#c1c5c6"/><path d="M31,3H2A1.0029,1.0029,0,0,0,1,4V17H3V5H30V26H18v2H31a1.0029,1.0029,0,0,0,1-1V4A1.0029,1.0029,0,0,0,31,3Z" fill="#9da2a5"/><rect y="18" width="17" height="13" fill="#c93b2f"/><path d="M10,23v3H8.5a.5006.5006,0,0,1-.5-.5v-2a.5006.5006,0,0,1,.5-.5H10m1-1H8.5A1.5,1.5,0,0,0,7,23.5v2A1.5,1.5,0,0,0,8.5,27H11V22Z" fill="#fff"/><rect x="10" y="20" width="1" height="7" fill="#fff"/><path d="M4.5,23a.5006.5006,0,0,1,.5.5v2a.5006.5006,0,0,1-.5.5H3V23H4.5m0-1H2v5H4.5A1.5,1.5,0,0,0,6,25.5v-2A1.5,1.5,0,0,0,4.5,22Z" fill="#fff"/><rect x="2" y="22" width="1" height="7" transform="translate(5 51) rotate(-180)" fill="#fff"/><path d="M14,21h1V20H14a1,1,0,0,0-1,1v6h1Z" fill="#fff"/><rect x="12" y="22" width="3" height="1" fill="#fff"/><polygon points="13 8 13 9.688 13 17 17 17 17 9.688 17 8 13 8" fill="#c1c5c6"/><polygon points="8 14 8 14.6 8 17 12 17 12 14.6 12 14 8 14" fill="#c1c5c6"/></svg>