<svg id="Layer_1" data-name="Layer 1" xmlns="http://www.w3.org/2000/svg" viewBox="0 0 16 16"><title>report_pdf_16</title><rect x="2" y="2" width="13" height="12" fill="#fff"/><path d="M15,1H2A1,1,0,0,0,1,2V3H2V2H15V14H2V13H1v1a1,1,0,0,0,1,1H15a1,1,0,0,0,1-1V2A1,1,0,0,0,15,1Z" fill="#798288"/><rect y="4" width="12" height="8" fill="#c93b2f"/><path d="M3,7V9H2V7H3M3,6H1v4H3A1,1,0,0,0,4,9V7A1,1,0,0,0,3,6Z" fill="#f4f4f4"/><rect x="1" y="6" width="1" height="5" fill="#f4f4f4"/><path d="M7,7V9H6V7H7M8,6H6A1,1,0,0,0,5,7V9a1,1,0,0,0,1,1H8V6Z" fill="#f4f4f4"/><rect x="7" y="5" width="1" height="5" transform="translate(15 15) rotate(-180)" fill="#f4f4f4"/><rect x="8.5" y="7" width="2" height="1" transform="translate(19 15) rotate(-180)" fill="#f4f4f4"/><path d="M10,10V6h1V5H10A1,1,0,0,0,9,6v4Z" fill="#f4f4f4"/></svg>